<svg id="OBJECTS" xmlns="http://www.w3.org/2000/svg" viewBox="0 0 185.13 343.18"><defs><style>.cls-1{fill:#94003b;}.cls-2{fill:#67a3c1;}.cls-3{fill:#5391aa;}.cls-4{fill:#48c6cb;}.cls-5{fill:#fbc098;}.cls-6{fill:#783848;}.cls-7{fill:#6e2a3b;}.cls-8{fill:#ffc197;}.cls-9{fill:#ffcfae;}.cls-10{fill:#fff;}.cls-11{fill:#ef866e;}.cls-12{fill:#7f0034;}.cls-13{fill:#2b2019;}.cls-14{fill:#d26671;}.cls-15{fill:#f3a876;}</style></defs><title>assistente</title><path class="cls-1" d="M203.33,142.3c6.78-6.39-.34-8.41-1.36-17.48S216.3,96.68,216.3,96.68l36.14.41c4.41,3.36,9.74,23.79,6,32.52s.47,10.38,4.2,13.74,7.68,9.86,6.32,23.3c-1.31,12.92-9.42,22.89-19.34,28.73-2.06,1.22-27.31,1-30.36,1s-13.91-1.35-19.67-7.73-.68-17.81-.35-19.82-3.77-5.09-4.75-10.42C192.81,149.18,196.54,148.68,203.33,142.3Z" transform="translate(-161.18 -87.28)"/><path class="cls-2" d="M165,174.07l35.87-27.19,12.37,18-34.83,17.77,8,12.72L177.66,202c-4.27-4-8.55-8-11.06-10.14C155.43,182.16,165,174.07,165,174.07Z" transform="translate(-161.18 -87.28)"/><path class="cls-3" d="M210.9,161.27l2.42,3.54L178.5,182.59l8,12.71-8.76,6.59c-.91-.86-1.83-1.72-2.73-2.55l7.56-5.69L174,180.08Z" transform="translate(-161.18 -87.28)"/><path class="cls-4" d="M282.8,419.82a17.08,17.08,0,0,1,.11,1.84c0,6.37-12,9.71-17.47,6.37-3.74-2.26-.44-5.5,2.46-9.15A22.25,22.25,0,0,1,282.8,419.82Z" transform="translate(-161.18 -87.28)"/><path class="cls-5" d="M270.34,401.93l8.28,2.43s3.54,9,4.18,15.46a22.25,22.25,0,0,0-14.9-.94,14.19,14.19,0,0,0,3.05-5.42A25.42,25.42,0,0,0,270.34,401.93Z" transform="translate(-161.18 -87.28)"/><path class="cls-4" d="M226.93,419.56c3.34,3.25,7,6.05,3.62,8.77-5,4-17.33,2.21-18.15-4.11a17.43,17.43,0,0,1-.14-1.84A22.32,22.32,0,0,1,226.93,419.56Z" transform="translate(-161.18 -87.28)"/><path class="cls-5" d="M222.31,403.06a25.43,25.43,0,0,0,.88,11.51,14.17,14.17,0,0,0,3.74,5,22.32,22.32,0,0,0-14.67,2.82c-.19-6.46,2.16-15.86,2.16-15.86Z" transform="translate(-161.18 -87.28)"/><path class="cls-6" d="M245.21,214.41s19.32,26.17,19.32,42.49-1.13,64.3,3.53,72.28c8.91,15.25,17,36.68,11.74,78.06l-8.8,1.21s-20-69.36-25.3-84.52S231,261,231,261s-15.89,113.66-7.06,149.8l-10.47.41s-11.53-55-10.94-67.28.22-38.63-3.31-68.35,15.31-60.1,15.31-60.1Z" transform="translate(-161.18 -87.28)"/><path class="cls-7" d="M250.67,324.22c5,14.32,23.15,77,25.12,83.89l-4.51.62s-20-69.36-25.3-84.51c-3.45-9.87-12-48.2-15.18-63.54,1.08-8.72,1.83-14.06,1.83-14.06S245.37,309.06,250.67,324.22Z" transform="translate(-161.18 -87.28)"/><path class="cls-7" d="M245.5,214.69a1.52,1.52,0,0,0,.11.16s-45,31.26-41.43,61,3.9,56.11,3.31,68.35c-.57,11.84,10.19,63.68,10.9,67.1l-4.65.18s-11.53-55-10.94-67.28.22-38.62-3.31-68.35,15.31-60.1,15.31-60.1Z" transform="translate(-161.18 -87.28)"/><polygon class="cls-8" points="64.29 45.84 77.72 46.16 79.85 59.37 88.03 62.31 83.27 74.54 53.8 62.72 62.9 58.84 64.29 45.84"/><path class="cls-2" d="M283.57,176.27l12.7-18.59,11.44,6.46-11.79,29.92s-9.09,7.83-15.76,1-31.41-34-31.41-34l16.2-13Z" transform="translate(-161.18 -87.28)"/><path class="cls-3" d="M281.86,190.22c6.68,6.84,15.76-1,15.76-1l9.93-25.18.16.1-11.79,29.91s-9.09,7.83-15.76,1-31.41-34-31.41-34l3.53-2.83C258.11,164.63,276.29,184.5,281.86,190.22Z" transform="translate(-161.18 -87.28)"/><path class="cls-9" d="M232.17,102.37c4.59-1,11.51-1,15.41,5.56,0,0,4,32.86-15.08,32.54-20.36-.34-15.73-32.54-15.73-32.54C220.66,101.34,227.58,101.41,232.17,102.37Z" transform="translate(-161.18 -87.28)"/><path class="cls-1" d="M231.23,87.69c-.41,0-.81,0-1.21,0A.85.85,0,0,1,231.23,87.69Z" transform="translate(-161.18 -87.28)"/><path class="cls-1" d="M230,87.73c-.6.62-1.17,2.48-1,7.46.28,9.87-15.22,18.35-15.22,18.35S209.94,88.51,230,87.73Z" transform="translate(-161.18 -87.28)"/><path class="cls-1" d="M235.59,87.6c21.47-.21,21.75,25.37,21.75,25.37l-7.59.57C235.44,114.79,223,97.07,223,97.07,223.66,84.57,235.59,87.6,235.59,87.6Z" transform="translate(-161.18 -87.28)"/><path class="cls-10" d="M216.91,147.15s6.73,6.85,14.31,6.85S244,147.83,244,147.83s16.88,3,19.7,12c0,0-24.53,31.51-17.59,57.73H215.33C222.27,191.39,202,159,202,159,205.69,152.72,216.91,147.15,216.91,147.15Z" transform="translate(-161.18 -87.28)"/><rect class="cls-2" x="45.96" y="126.31" width="47.75" height="7.46"/><path class="cls-9" d="M325.55,126.89l10.63,1.66,10-5s.66,3.32-.67,4.32-18.27,12.62-18.27,12.62l-10-1.66-12.76,33.64-11.09-7.74-1.24-1.07,18.12-29.81Z" transform="translate(-161.18 -87.28)"/><path class="cls-2" d="M265.55,160.19c-13.2,19.93,5.22,79.62,5.22,79.62s-20,3.83-29.42-14.5-.75-81.11-.75-81.11C254.25,142.92,276,144.41,265.55,160.19Z" transform="translate(-161.18 -87.28)"/><path class="cls-3" d="M245.3,143.9c-2,17.4-5.64,59,1.7,73.31,5.6,10.94,15,14,21.65,14.66,1.29,4.91,2.22,7.94,2.22,7.94s-20,3.83-29.41-14.5-.75-81.11-.75-81.11C242.16,144.06,243.71,144,245.3,143.9Z" transform="translate(-161.18 -87.28)"/><path class="cls-2" d="M199.14,160.29c-10.45-15.77,11.3-17.27,24.94-16,0,0,8.63,62.78-.74,81.12s-29.42,14.49-29.42,14.49S212.34,180.23,199.14,160.29Z" transform="translate(-161.18 -87.28)"/><path class="cls-3" d="M217.79,217.21c7.34-14.35,3.65-55.91,1.7-73.31,1.59.06,3.14.16,4.59.3,0,0,8.64,62.78-.74,81.11s-29.42,14.5-29.42,14.5.93-3,2.23-7.94C202.81,231.19,212.2,228.15,217.79,217.21Z" transform="translate(-161.18 -87.28)"/><path class="cls-11" d="M222.09,121.81a2.56,2.56,0,1,1-2.55,2.56A2.56,2.56,0,0,1,222.09,121.81Z" transform="translate(-161.18 -87.28)"/><path class="cls-11" d="M241.21,121.81a2.56,2.56,0,1,1-2.56,2.56A2.56,2.56,0,0,1,241.21,121.81Z" transform="translate(-161.18 -87.28)"/><path class="cls-12" d="M227.35,113.83a.63.63,0,0,1,0,.9.63.63,0,0,1-.9,0c-.1-.1-2.54-2.56-5.86.06a.64.64,0,0,1-.9-.1.64.64,0,0,1,.11-.9C224,110.43,227.32,113.79,227.35,113.83Z" transform="translate(-161.18 -87.28)"/><path class="cls-12" d="M244.09,114.19a.64.64,0,1,1-.92.89c-.1-.11-2.53-2.56-5.86.06a.64.64,0,0,1-.39.14.66.66,0,0,1-.51-.25.65.65,0,0,1,.11-.9A5.53,5.53,0,0,1,244.09,114.19Z" transform="translate(-161.18 -87.28)"/><path class="cls-9" d="M177.66,202l8.75-6.58,11.21,12.89,2.41-.45,4.33-7.15,11.09,4-.56,2.06-6.77-2.06-.38,2.63,4.89,3,.57,7-5.65,2.63-2.06-6s-3.78,5-6,5.46S191,213.5,191,213.5l0,0C187.73,210.81,182.05,206.12,177.66,202Z" transform="translate(-161.18 -87.28)"/><path class="cls-13" d="M221.13,116.5a3.32,3.32,0,0,1,2.57-.33,4.47,4.47,0,0,1,2.17,1.15,6.27,6.27,0,0,1,1.36,1.86.08.08,0,0,1,0,.09.07.07,0,0,1-.1,0h0a7.13,7.13,0,0,0-1.67-1.35,3.6,3.6,0,0,0-1.87-.57,2.62,2.62,0,0,0-.9.18l-.83.28a4.55,4.55,0,0,0-1.66,1h0l0,0a.08.08,0,0,1-.09-.07A2.33,2.33,0,0,1,221.13,116.5Z" transform="translate(-161.18 -87.28)"/><path class="cls-13" d="M219.17,117.13h0a1.15,1.15,0,0,0,.74.32c.13,0,.23-.08.35,0a2.15,2.15,0,0,1,.47.23.06.06,0,0,1,0,.07.67.67,0,0,1-.43.44.78.78,0,0,1-.59-.12,1.15,1.15,0,0,1-.64-.86,0,0,0,0,1,0,0A0,0,0,0,1,219.17,117.13Z" transform="translate(-161.18 -87.28)"/><path class="cls-13" d="M239.74,116.17a3.34,3.34,0,0,1,2.58.33,2.32,2.32,0,0,1,1.09,2.3.07.07,0,0,1-.09.07l0,0h0a4.55,4.55,0,0,0-1.66-1l-.82-.28a2.68,2.68,0,0,0-.91-.18,3.6,3.6,0,0,0-1.87.57,7.13,7.13,0,0,0-1.67,1.35h0a.08.08,0,0,1-.11,0,.1.1,0,0,1,0-.09,6.45,6.45,0,0,1,1.36-1.86A4.47,4.47,0,0,1,239.74,116.17Z" transform="translate(-161.18 -87.28)"/><path class="cls-13" d="M243.18,117.41c.11,0,.21,0,.34,0a1.2,1.2,0,0,0,.75-.32h0a0,0,0,0,1,0,0,0,0,0,0,1,0,0,1.15,1.15,0,0,1-.64.86.76.76,0,0,1-.58.12.69.69,0,0,1-.44-.44.08.08,0,0,1,0-.07A2.18,2.18,0,0,1,243.18,117.41Z" transform="translate(-161.18 -87.28)"/><path class="cls-14" d="M231.8,135.46c-4.49,0-5.11-6-5.11-6h10.22S236.29,135.46,231.8,135.46Z" transform="translate(-161.18 -87.28)"/><path class="cls-10" d="M236.64,130.81a15.77,15.77,0,0,1-4.84.78,18.53,18.53,0,0,1-4.81-.7,10.72,10.72,0,0,1-.3-1.45h10.22A10.18,10.18,0,0,1,236.64,130.81Z" transform="translate(-161.18 -87.28)"/><path class="cls-15" d="M231.75,125.94a2.28,2.28,0,0,1-2.25-2.17H234A2.28,2.28,0,0,1,231.75,125.94Z" transform="translate(-161.18 -87.28)"/></svg>