<svg width="58" height="58" viewBox="0 0 58 58" fill="none" xmlns="http://www.w3.org/2000/svg">
<rect width="58" height="58" rx="29" fill="#0CB3FA"/>
<path d="M43.35 41.825L42.5583 42.6167L35.275 35.3333V34.5417H36.0667L43.35 41.825ZM48.1 44.675C48.1 44.5167 47.9417 44.2 47.9417 44.0417L46.5167 42.6167L43.5083 45.625L44.9333 47.05C45.25 47.3667 45.725 47.3667 46.0417 47.05L47.9417 45.15C48.1 45.15 48.1 44.8333 48.1 44.675ZM45.5667 41.825L36.7 32.9583H33.6917V35.9667L42.5583 44.8333L45.5667 41.825Z" fill="white"/>
<path d="M36.3833 26.9417H20.55V30.1083H36.3833V26.9417Z" fill="white"/>
<path d="M35.275 39.6083H17.3833V17.4417H39.55V34.0667H42.7167V17.4417C42.7167 15.7 41.2917 14.275 39.55 14.275H32.9C32.2667 12.375 30.525 11.1083 28.4667 11.1083C26.4083 11.1083 24.6667 12.375 24.0333 14.275H17.3833C17.225 14.275 16.9083 14.275 16.75 14.275C16.1167 14.4333 15.6417 14.75 15.1667 15.225C14.85 15.3833 14.6917 15.8583 14.5333 16.175C14.375 16.4917 14.2167 16.9667 14.2167 17.4417V39.6083C14.2167 40.0833 14.375 40.4 14.5333 40.875C14.6917 41.1917 14.85 41.6667 15.1667 41.825C15.6417 42.3 16.1167 42.6167 16.75 42.6167C16.9083 42.6167 17.225 42.6167 17.3833 42.6167H35.1167V39.6083H35.275ZM28.4667 13.8C29.1 13.8 29.7333 14.275 29.7333 15.0667C29.7333 15.8583 29.2583 16.3333 28.4667 16.3333C27.675 16.3333 27.3583 15.7 27.3583 15.0667C27.3583 14.4333 27.8333 13.8 28.4667 13.8Z" fill="white"/>
<path d="M36.3833 20.6083H20.55V23.775H36.3833V20.6083Z" fill="white"/>
<path d="M31.6333 33.275H20.55V36.4417H31.6333V33.275Z" fill="white"/>
</svg>
