<svg width="58" height="58" viewBox="0 0 58 58" fill="none" xmlns="http://www.w3.org/2000/svg">
<rect width="58" height="58" rx="29" fill="#E6B300"/>
<path d="M20.6667 35H32.3333V38.3333H20.6667V35ZM20.6667 28.3333H37.3333V31.6667H20.6667V28.3333ZM20.6667 21.6667H37.3333V25H20.6667V21.6667ZM40.6667 15H33.7C33 13.0667 31.1667 11.6667 29 11.6667C26.8333 11.6667 25 13.0667 24.3 15H17.3333C17.1 15 16.8833 15.0167 16.6667 15.0667C16.0167 15.2 15.4333 15.5333 14.9833 15.9833C14.6833 16.2833 14.4333 16.65 14.2667 17.05C14.1 17.4333 14 17.8667 14 18.3333V41.6667C14 42.1167 14.1 42.5667 14.2667 42.9667C14.4333 43.3667 14.6833 43.7167 14.9833 44.0333C15.4333 44.4833 16.0167 44.8167 16.6667 44.95C16.8833 44.9833 17.1 45 17.3333 45H40.6667C42.5 45 44 43.5 44 41.6667V18.3333C44 16.5 42.5 15 40.6667 15ZM29 14.5833C29.6833 14.5833 30.25 15.15 30.25 15.8333C30.25 16.5167 29.6833 17.0833 29 17.0833C28.3167 17.0833 27.75 16.5167 27.75 15.8333C27.75 15.15 28.3167 14.5833 29 14.5833ZM40.6667 41.6667H17.3333V18.3333H40.6667V41.6667Z" fill="white"/>
</svg>
